<svg width="140" height="148" viewBox="0 0 140 148" fill="none" xmlns="http://www.w3.org/2000/svg">
<path d="M26.5001 44.449L21.2085 19.8109L30.3598 17.8454C35.8154 16.6737 39.6805 17.8687 40.5877 22.0924L40.7389 22.7963C41.2907 25.3658 40.2029 27.33 37.8426 28.6838C41.1112 28.6445 43.3747 29.9258 44.0626 33.1288L44.2138 33.8327C45.2041 38.4436 42.163 41.0851 36.7074 42.2568L26.5001 44.449ZM27.6471 29.2166L32.7859 28.1129C35.5313 27.5232 36.9588 26.112 36.5355 24.141L36.3843 23.437C35.961 21.466 34.1101 20.9061 31.3647 21.4958L26.2259 22.5995L27.6471 29.2166ZM29.9301 39.8462L35.9136 38.5611C38.8702 37.9261 40.3506 36.7612 39.8517 34.4382L39.7005 33.7342C39.1713 31.2704 37.3356 30.781 34.3791 31.416L28.3955 32.7011L29.9301 39.8462ZM63.3417 30.9396L65.9551 32.9926C64.4402 35.7114 61.9969 37.1935 58.8292 37.8738C53.9015 38.9321 49.191 36.3722 48.0117 30.8814L47.9059 30.3887C46.7115 24.8275 50.3226 20.5539 54.8982 19.5712C59.7907 18.5204 63.8899 20.2911 65.175 26.2747L65.5681 28.1049L52.5451 30.9019C53.4616 33.798 55.4209 35.0342 58.3071 34.4143C60.2781 33.991 62.1433 33.0749 63.3417 30.9396ZM51.9202 28.1641L60.7196 26.2742C59.8507 23.2574 58.1657 22.441 55.6315 22.9853C53.2733 23.4918 51.6951 25.23 51.9202 28.1641ZM76.7496 22.5736C81.263 22.6721 83.3101 23.6316 83.9602 26.6586C84.6708 29.9672 82.4092 32.8094 77.9391 33.7695C75.3697 34.3213 72.0432 34.2625 69.5784 32.7299L70.4645 29.4835C72.3106 30.7071 74.6717 30.8996 76.8187 30.4385C78.8953 29.9925 80.0691 29.1144 79.7592 27.6713C79.4417 26.1931 77.9884 26.2843 75.806 26.2375C71.8509 26.1664 69.2004 25.4838 68.4974 22.2104C67.9077 19.465 69.3974 16.4572 74.0082 15.4669C76.1904 14.9982 78.8808 15.0095 81.2801 16.4089L80.4645 19.6402C78.2362 18.3514 76.8181 18.435 75.199 18.7827C73.1576 19.2212 72.4565 20.0714 72.6833 21.1273C73.0008 22.6056 74.532 22.5345 76.7496 22.5736ZM83.9233 17.7191L83.0993 13.8826L84.2608 13.6331C85.6687 13.3307 86.1109 12.6466 85.8085 11.2387L85.0979 7.93015L89.2512 7.03814L90.3851 12.3177L96.5447 10.9948L97.3687 14.8313L91.2091 16.1543L92.8344 23.7217C93.2653 25.7279 94.2964 26.2429 95.7043 25.9405C96.6194 25.744 97.7758 25.1274 99.3492 24.0531L100.181 27.9248C98.4138 29.2984 96.9507 29.6863 95.8243 29.9282C91.4247 30.8732 89.6563 29.1542 88.7189 24.7897L87.0558 17.0463L83.9233 17.7191ZM14.0379 88.8396C12.8208 83.1728 15.4615 79.1813 20.0372 78.1986C24.7888 77.1781 27.4981 80.0205 28.3901 84.1738L24.9808 68.2998L29.1341 67.4078L34.8037 93.8058L30.6504 94.6978L29.1309 87.6232C30.023 91.7765 28.7197 95.4807 23.9681 96.5012C19.6036 97.4386 15.3305 94.8584 14.1361 89.2972L14.0379 88.8396ZM18.2615 87.9325L18.3598 88.39C19.0931 91.8042 21.5704 93.2236 24.5974 92.5735C28.6099 91.7118 29.3804 88.7847 28.8512 86.3209L28.6698 85.4761C28.1482 83.0475 26.3167 80.8634 22.1986 81.7479C19.2421 82.3829 17.5207 84.4831 18.2615 87.9325ZM52.8738 84.3281L55.4871 86.3811C53.9723 89.0998 51.529 90.5819 48.3612 91.2622C43.4336 92.3206 38.723 89.7606 37.5438 84.2698L37.4379 83.7771C36.2435 78.2159 39.8547 73.9423 44.4303 72.9596C49.3227 71.9088 53.422 73.6795 54.7071 79.6631L55.1002 81.4934L42.0771 84.2904C42.9937 87.1865 44.953 88.4226 47.8392 87.8027C49.8102 87.3794 51.6754 86.4633 52.8738 84.3281ZM41.4523 81.5525L50.2516 79.6627C49.3828 76.6458 47.6978 75.8295 45.1636 76.3737C42.8054 76.8802 41.2272 78.6184 41.4523 81.5525ZM66.2817 75.9621C70.795 76.0605 72.8422 77.0201 73.4923 80.047C74.2029 83.3556 71.9413 86.1979 67.4712 87.1579C64.9018 87.7098 61.5753 87.651 59.1105 86.1184L59.9966 82.8719C61.8427 84.0956 64.2037 84.2881 66.3508 83.8269C68.4274 83.3809 69.6012 82.5029 69.2913 81.0598C68.9738 79.5815 67.5205 79.6727 65.338 79.6259C61.3829 79.5549 58.7325 78.8722 58.0295 75.5988C57.4398 72.8534 58.9294 69.8456 63.5403 68.8553C65.7225 68.3866 68.4129 68.3979 70.8122 69.7973L69.9966 73.0286C67.7683 71.7398 66.3502 71.8234 64.7311 72.1712C62.6897 72.6096 61.9886 73.4598 62.2153 74.5157C62.5328 75.994 64.064 75.9229 66.2817 75.9621ZM73.2458 61.4686C72.8829 59.7791 73.712 58.4964 75.2959 58.1562C76.9854 57.7934 78.2681 58.6225 78.631 60.312C78.9711 61.8959 78.142 63.1786 76.4525 63.5414C74.8686 63.8816 73.5859 63.0525 73.2458 61.4686ZM78.7528 84.3667L74.9731 66.768L79.1264 65.876L82.9061 83.4747L78.7528 84.3667ZM85.5325 73.4845C84.3154 67.8177 86.9562 63.8262 91.5318 62.8434C96.1779 61.8456 98.8142 64.5196 99.8318 68.5723L98.3653 61.744L102.519 60.852L106.162 77.8171C107.417 83.6599 104.844 87.9682 98.4033 89.3515C93.8277 90.3343 90.8326 89.247 88.6217 87.6966L90.516 84.3441C92.6489 85.8744 94.8691 86.0971 97.333 85.5679C101.345 84.7062 102.795 82.3697 102.001 78.6739L100.678 72.5144C101.407 76.5923 100.109 80.1482 95.4627 81.1461C91.0983 82.0835 86.8252 79.5032 85.6308 73.942L85.5325 73.4845ZM89.7562 72.5773L89.8545 73.0349C90.5877 76.449 93.065 77.8685 96.092 77.2184C100.034 76.3717 100.764 73.6006 100.399 71.2121L100.104 69.8394C99.4718 67.5818 97.741 65.5234 93.7285 66.3851C90.7367 67.0277 89.0154 69.128 89.7562 72.5773ZM111.545 77.3238L107.765 59.7252L111.918 58.8331L113.438 65.9078C112.546 61.7545 113.744 58.073 118.46 57.06C122.93 56.0999 125.828 58.276 126.909 63.3092L129.108 73.5517L124.955 74.4437L123.043 65.5387C122.332 62.2302 121.009 60.5261 117.595 61.2594C114.532 61.917 113.06 64.1479 113.778 67.4917L115.698 76.4318L111.545 77.3238ZM42.7558 128.62L53.8078 126.247L54.2236 128.182C56.3629 138.143 50.6898 141.902 45.3398 143.051C38.7226 144.473 31.9172 141.074 30.2693 133.401L30.1181 132.697C28.455 124.953 33.2798 119.13 40.0729 117.671C44.543 116.711 48.8506 117.738 51.8211 120.082L49.9798 123.681C47.1023 121.427 44.5173 120.878 41.1031 121.611C36.8443 122.526 33.2102 126.178 34.4122 131.775L34.5633 132.479C35.8182 138.321 40.5786 139.913 44.4855 139.074C47.7941 138.363 51.0242 136.602 50.1565 130.676L43.5042 132.105L42.7558 128.62ZM75.8481 117.72L79.6278 135.319L75.4745 136.211L73.955 129.136C74.8471 133.29 73.6494 136.971 68.9682 137.977C64.4629 138.944 61.5654 136.768 60.4844 131.735L58.2846 121.492L62.4379 120.6L64.3504 129.505C65.061 132.814 66.3843 134.518 69.7985 133.785C72.8607 133.127 74.333 130.896 73.6149 127.552L71.6948 118.612L75.8481 117.72ZM79.3797 111.291C79.0169 109.602 79.846 108.319 81.4299 107.979C83.1194 107.616 84.4021 108.445 84.7649 110.135C85.1051 111.719 84.276 113.001 82.5865 113.364C81.0026 113.704 79.7199 112.875 79.3797 111.291ZM84.8868 134.189L81.107 116.591L85.2603 115.699L89.0401 133.297L84.8868 134.189ZM91.6665 123.307C90.4494 117.64 93.0901 113.649 97.6658 112.666C102.417 111.646 105.127 114.488 106.019 118.641L102.609 102.767L106.763 101.875L112.432 128.273L108.279 129.165L106.76 122.091C107.652 126.244 106.348 129.948 101.597 130.969C97.2322 131.906 92.9591 129.326 91.7647 123.765L91.6665 123.307ZM95.8902 122.4L95.9884 122.858C96.7217 126.272 99.199 127.691 102.226 127.041C106.238 126.179 107.009 123.252 106.48 120.788L106.298 119.944C105.777 117.515 103.945 115.331 99.8273 116.215C96.8707 116.85 95.1493 118.951 95.8902 122.4ZM130.502 118.796L133.116 120.849C131.601 123.567 129.158 125.05 125.99 125.73C121.062 126.788 116.352 124.228 115.172 118.737L115.067 118.245C113.872 112.684 117.483 108.41 122.059 107.427C126.951 106.376 131.051 108.147 132.336 114.131L132.729 115.961L119.706 118.758C120.622 121.654 122.582 122.89 125.468 122.27C127.439 121.847 129.304 120.931 130.502 118.796ZM119.081 116.02L127.88 114.13C127.011 111.113 125.326 110.297 122.792 110.841C120.434 111.348 118.856 113.086 119.081 116.02Z" fill="white"/>
</svg>
