<svg width="1322" height="840" viewBox="0 0 1322 840" fill="none" xmlns="http://www.w3.org/2000/svg">
<path d="M275.196 1.63617C119.813 5.38092 30.7021 10.9981 12.7302 18.4877L0 23.7303V164.16C0 241.676 7.86275 582.451 7.86275 582.451C7.11392 582.451 14.5721 299.909 1.84195 296.539C9.28425 321.629 9.37793 338.198 8.30025 544.629C8.30025 558.672 7.48834 563.353 7.86275 582.451C7.86275 593.686 9.36041 642.368 10.4837 690.675C13.479 790.661 14.6022 795.529 40.8114 803.393C49.4229 806.014 57.2857 811.257 59.9066 816.5C69.6415 834.1 86.4903 838.219 155.383 839.717C239.627 841.59 672.452 833.726 758.194 828.858C795.261 826.611 931.923 823.615 1061.47 822.491C1307.46 819.87 1308.96 819.496 1317.57 803.768C1322.81 793.657 1323.19 764.447 1319.82 422.175C1317.57 194.492 1315.7 104.992 1312.7 100.498C1310.08 97.5025 1301.1 93.7577 1292.49 92.6342C1278.63 90.7618 1276.39 88.8895 1273.77 79.1531C1271.52 70.9146 1267.4 66.4208 1259.91 63.7994C1238.94 57.0588 745.463 61.5526 550.392 70.1656C538.411 70.9146 537.288 70.1656 535.416 57.8078C532.046 38.7095 529.425 35.7137 512.576 33.0923C500.22 30.8455 496.102 28.2241 491.609 18.1132C488.239 11.3726 482.248 5.00653 477.755 3.88306C459.035 -0.610657 401.375 -0.985168 275.196 1.63617ZM476.632 13.9939C484.495 18.8621 485.993 23.7304 487.49 42.8288C489.737 75.0339 494.23 78.4041 534.667 78.4041C552.639 78.4041 648.864 75.7828 748.833 73.1614C954.762 67.5443 1230.71 65.6718 1251.3 70.1656C1259.54 71.6635 1265.9 75.7828 1267.03 79.5275C1267.77 82.8978 1270.02 239.43 1271.14 427.043C1274.14 812.381 1277.14 777.554 1242.31 782.422C1231.46 784.295 1155.82 785.044 1074.58 785.044C993.327 785.044 879.505 786.167 821.845 788.414C764.184 790.286 669.831 793.282 612.171 795.155C491.983 799.274 200.687 804.891 131.046 804.516C67.3951 804.142 43.4323 800.772 30.7021 789.912L20.5929 781.299L18.3464 669.33C15.7255 561.106 27.9774 527.592 35.0913 521.226C39.2099 517.856 32.1998 544.629 33.6975 544.629C35.1951 544.629 36.6928 560.357 37.0672 579.455C38.1904 646.861 45.3044 759.205 48.6741 765.945C55.0392 777.554 76.7555 780.55 188.332 785.044C274.073 788.414 312.263 788.414 377.412 784.669C483.372 778.303 617.413 774.558 915.449 769.316C1208.62 764.447 1232.58 763.324 1244.19 754.336C1252.05 747.97 1252.42 744.975 1252.42 689.926C1252.05 532.271 1245.31 169.777 1242.69 165.657C1238.57 159.291 575.853 159.291 475.509 165.657C439.565 168.279 352.7 171.649 282.685 173.896C67.0207 180.637 41.1858 182.134 35.1951 190.747C31.0765 195.99 29.9533 212.842 29.9533 260.775L36.3738 524.082L16.8581 586.295L7.48834 169.402V27.8496L17.972 23.7303C36.3184 16.6153 295.789 5.38098 406.616 6.87885C455.29 7.62781 469.144 9.12573 476.632 13.9939ZM1239.69 344.283C1240.82 440.899 1243.06 570.093 1244.94 630.759C1247.18 727 1246.81 742.353 1241.94 748.719C1236.7 755.834 1231.08 756.209 1156.2 757.332C874.637 760.703 538.036 769.316 385.275 777.18C273.324 782.797 83.8693 777.554 64.774 768.567C55.0392 764.073 53.916 761.452 51.6694 737.485C50.1718 722.88 47.5509 671.951 45.3044 624.018V530.123C54.1817 392.503 62.5996 262.004 45.3044 530.123L38.5649 266.018C37.816 227.446 38.5649 195.99 40.4369 193.369C43.0579 189.25 74.8834 187.377 187.583 184.756C266.585 182.509 389.393 178.015 460.532 174.27C566.867 168.653 646.992 167.53 913.577 167.904L1237.45 168.279L1239.69 344.283Z" fill="black"/>
</svg>
