<svg width="102" height="24" viewBox="0 0 102 24" fill="none" xmlns="http://www.w3.org/2000/svg">
<path d="M101 2.9998C100.042 3.67528 98.9821 4.19191 97.86 4.5298C97.2577 3.83731 96.4573 3.34649 95.567 3.12373C94.6767 2.90096 93.7395 2.957 92.8821 3.28426C92.0247 3.61151 91.2884 4.1942 90.773 4.95352C90.2575 5.71283 89.9877 6.61214 90 7.5298V8.5298C88.2426 8.57537 86.5013 8.18561 84.931 7.39525C83.3607 6.60488 82.0103 5.43844 81 3.9998C81 3.9998 77 12.9998 86 16.9998C83.9405 18.3978 81.4872 19.0987 79 18.9998C88 23.9998 99 18.9998 99 7.4998C98.9991 7.22126 98.9723 6.9434 98.92 6.6698C99.9406 5.6633 100.661 4.39251 101 2.9998Z" fill="white"/>
<path d="M56 2H46C43.2386 2 41 4.23858 41 7V17C41 19.7614 43.2386 22 46 22H56C58.7614 22 61 19.7614 61 17V7C61 4.23858 58.7614 2 56 2Z" stroke="white" stroke-width="2" stroke-linecap="round" stroke-linejoin="round"/>
<path d="M55 11.3698C55.1234 12.2021 54.9813 13.052 54.5938 13.7988C54.2063 14.5456 53.5931 15.1512 52.8416 15.5295C52.0901 15.9077 51.2384 16.0394 50.4078 15.9057C49.5771 15.7721 48.8098 15.3799 48.2148 14.785C47.6199 14.1901 47.2277 13.4227 47.0941 12.592C46.9604 11.7614 47.0921 10.9097 47.4703 10.1582C47.8486 9.40667 48.4542 8.79355 49.201 8.40605C49.9478 8.01856 50.7978 7.8764 51.63 7.99981C52.4789 8.1257 53.2649 8.52128 53.8717 9.12812C54.4785 9.73496 54.8741 10.5209 55 11.3698Z" stroke="white" stroke-width="2" stroke-linecap="round" stroke-linejoin="round"/>
<path d="M56.5 6.5H56.51" stroke="white" stroke-width="2" stroke-linecap="round" stroke-linejoin="round"/>
<path d="M18 2H15C13.6739 2 12.4021 2.52678 11.4645 3.46447C10.5268 4.40215 10 5.67392 10 7V10H7V14H10V22H14V14H17L18 10H14V7C14 6.73478 14.1054 6.48043 14.2929 6.29289C14.4804 6.10536 14.7348 6 15 6H18V2Z" fill="white"/>
</svg>
