<svg width="489" height="75" viewBox="0 0 489 75" fill="none" xmlns="http://www.w3.org/2000/svg">
<rect x="0.5" y="0.5" width="488" height="74" rx="37" fill="#030211" stroke="white"/>
<path d="M38.84 46H38C37.568 46 37.352 45.784 37.352 45.352V30.28C37.352 29.848 37.568 29.632 38 29.632H39.512C39.848 29.632 40.088 29.776 40.256 30.088L46.472 41.896L52.424 30.088C52.568 29.776 52.808 29.632 53.168 29.632H54.68C55.088 29.632 55.304 29.848 55.304 30.28V45.352C55.304 45.784 55.088 46 54.68 46H53.168C52.736 46 52.52 45.784 52.52 45.352V34.432L47.096 45.16C46.928 45.472 46.688 45.616 46.328 45.616H45.896C45.584 45.616 45.32 45.472 45.128 45.16L39.488 34.456V45.352C39.488 45.784 39.272 46 38.84 46ZM65.0315 46.24C61.1915 46.24 58.8395 43.984 58.8395 40.264C58.8395 38.464 59.3915 37.024 60.4715 35.944C61.5515 34.864 62.9675 34.312 64.7675 34.312C68.1275 34.312 70.2155 36.376 70.2155 39.736C70.2155 39.904 70.2155 40.048 70.1915 40.144C70.1195 40.504 69.9035 40.696 69.5435 40.696H61.5275C61.6475 43.168 63.0635 44.608 65.3435 44.608C66.5435 44.608 67.6475 44.2 68.6555 43.384C69.0155 43.072 69.3035 43.096 69.5435 43.456L69.7595 43.72C70.0475 44.056 70.0235 44.344 69.6875 44.608C68.3195 45.688 66.7835 46.24 65.0315 46.24ZM61.5995 39.088H67.6235C67.4555 37 66.4955 35.944 64.7675 35.944C63.0635 35.944 61.9115 37.096 61.5995 39.088ZM78.6721 46.24C74.8321 46.24 72.4801 43.984 72.4801 40.264C72.4801 38.464 73.0321 37.024 74.1121 35.944C75.1921 34.864 76.6081 34.312 78.4081 34.312C81.7681 34.312 83.8561 36.376 83.8561 39.736C83.8561 39.904 83.8561 40.048 83.8321 40.144C83.7601 40.504 83.5441 40.696 83.1841 40.696H75.1681C75.2881 43.168 76.7041 44.608 78.9841 44.608C80.1841 44.608 81.2881 44.2 82.2961 43.384C82.6561 43.072 82.9441 43.096 83.1841 43.456L83.4001 43.72C83.6881 44.056 83.6641 44.344 83.3281 44.608C81.9601 45.688 80.4241 46.24 78.6721 46.24ZM75.2401 39.088H81.2641C81.0961 37 80.1361 35.944 78.4081 35.944C76.7041 35.944 75.5521 37.096 75.2401 39.088ZM93.7048 44.728L93.8008 45.04C93.9448 45.448 93.8488 45.712 93.4888 45.88C92.9128 46.12 92.2408 46.24 91.4728 46.24C89.0968 46.24 87.8968 45.064 87.8968 42.736V36.184H86.1928C85.7848 36.184 85.5688 35.968 85.5688 35.536V35.2C85.5688 34.768 85.7848 34.552 86.1928 34.552H87.8968V31.936C87.8968 31.576 88.0648 31.336 88.4008 31.216L89.6728 30.712C90.1288 30.544 90.3928 30.736 90.3928 31.216V34.552H92.7928C93.2248 34.552 93.4408 34.768 93.4408 35.2V35.536C93.4408 35.968 93.2248 36.184 92.7928 36.184H90.3928V42.784C90.3928 44.008 90.8728 44.608 91.8568 44.608C92.2168 44.608 92.5288 44.536 92.8408 44.416C93.2728 44.248 93.5608 44.368 93.7048 44.728ZM111.863 44.608C110.783 45.688 109.319 46.24 107.519 46.24C105.719 46.24 104.255 45.688 103.175 44.608C102.095 43.528 101.543 42.064 101.543 40.264C101.543 38.464 102.095 37 103.175 35.92C104.255 34.84 105.719 34.312 107.519 34.312C109.319 34.312 110.783 34.84 111.863 35.92C112.943 37 113.495 38.464 113.495 40.264C113.495 42.064 112.943 43.528 111.863 44.608ZM105.095 43.456C105.671 44.224 106.487 44.608 107.519 44.608C108.551 44.608 109.367 44.224 109.967 43.456C110.543 42.712 110.831 41.632 110.831 40.264C110.831 37.552 109.607 35.944 107.519 35.944C105.431 35.944 104.207 37.552 104.207 40.264C104.207 41.632 104.495 42.712 105.095 43.456ZM124.673 34.552H125.897C126.329 34.552 126.545 34.768 126.545 35.2V45.352C126.545 45.784 126.329 46 125.897 46H124.889C124.481 46 124.265 45.784 124.265 45.352V43.912C123.521 45.472 122.225 46.24 120.353 46.24C117.761 46.24 116.345 44.704 116.345 41.848V35.2C116.345 34.768 116.561 34.552 116.969 34.552H118.193C118.625 34.552 118.841 34.768 118.841 35.2V41.536C118.841 43.456 119.585 44.416 121.097 44.416C122.993 44.416 124.049 42.952 124.049 40.288V35.2C124.049 34.768 124.265 34.552 124.673 34.552ZM136.629 34.336C137.037 34.36 137.229 34.576 137.181 35.032L137.109 35.752C137.061 36.136 136.869 36.328 136.533 36.328C136.365 36.304 136.197 36.304 136.053 36.304C133.965 36.304 132.861 37.864 132.861 40.768V45.352C132.861 45.784 132.645 46 132.237 46H131.013C130.581 46 130.365 45.784 130.365 45.352V35.2C130.365 34.768 130.581 34.552 131.013 34.552H132.021C132.429 34.552 132.645 34.768 132.645 35.2V36.88C133.293 35.176 134.517 34.312 136.317 34.312C136.437 34.312 136.557 34.312 136.629 34.336ZM150.858 46.24C147.09 46.24 144.738 43.936 144.738 40.264C144.738 36.616 147.09 34.312 150.858 34.312C152.178 34.312 153.306 34.576 154.29 35.128C154.626 35.32 154.698 35.608 154.482 35.992L154.29 36.28C154.122 36.64 153.834 36.712 153.426 36.496C152.73 36.136 151.986 35.944 151.17 35.944C148.77 35.944 147.402 37.504 147.402 40.264C147.402 43.048 148.77 44.608 151.17 44.608C152.13 44.608 153.018 44.344 153.81 43.816C154.17 43.6 154.458 43.648 154.698 43.984L154.89 44.224C155.13 44.584 155.106 44.872 154.794 45.088C153.714 45.856 152.418 46.24 150.858 46.24ZM164.004 34.336C164.412 34.36 164.604 34.576 164.556 35.032L164.484 35.752C164.436 36.136 164.244 36.328 163.908 36.328C163.74 36.304 163.572 36.304 163.428 36.304C161.34 36.304 160.236 37.864 160.236 40.768V45.352C160.236 45.784 160.02 46 159.612 46H158.388C157.956 46 157.74 45.784 157.74 45.352V35.2C157.74 34.768 157.956 34.552 158.388 34.552H159.396C159.804 34.552 160.02 34.768 160.02 35.2V36.88C160.668 35.176 161.892 34.312 163.692 34.312C163.812 34.312 163.932 34.312 164.004 34.336ZM172.446 46.24C168.606 46.24 166.254 43.984 166.254 40.264C166.254 38.464 166.806 37.024 167.886 35.944C168.966 34.864 170.382 34.312 172.182 34.312C175.542 34.312 177.63 36.376 177.63 39.736C177.63 39.904 177.63 40.048 177.606 40.144C177.534 40.504 177.318 40.696 176.958 40.696H168.942C169.062 43.168 170.478 44.608 172.758 44.608C173.958 44.608 175.062 44.2 176.07 43.384C176.43 43.072 176.718 43.096 176.958 43.456L177.174 43.72C177.462 44.056 177.438 44.344 177.102 44.608C175.734 45.688 174.198 46.24 172.446 46.24ZM169.014 39.088H175.038C174.87 37 173.91 35.944 172.182 35.944C170.478 35.944 169.326 37.096 169.014 39.088ZM185.366 34.312C188.63 34.312 190.262 35.824 190.262 38.872V45.352C190.262 45.784 190.046 46 189.638 46H188.63C188.198 46 187.982 45.784 187.982 45.352V43.912C187.214 45.472 185.87 46.24 183.926 46.24C181.526 46.24 179.942 44.848 179.942 42.712C179.942 40.48 181.694 39.088 184.646 39.088C185.894 39.088 186.926 39.256 187.766 39.568V39.04C187.766 37.024 186.806 36.016 184.862 36.016C183.83 36.016 182.87 36.328 181.982 36.952C181.622 37.192 181.31 37.144 181.07 36.808L180.878 36.496C180.662 36.136 180.71 35.848 181.022 35.608C182.246 34.744 183.71 34.312 185.366 34.312ZM184.622 44.608C186.374 44.608 187.574 43.24 187.742 41.032C187.046 40.744 186.206 40.6 185.222 40.6C183.494 40.6 182.63 41.272 182.63 42.64C182.63 43.864 183.398 44.608 184.622 44.608ZM200.674 44.728L200.77 45.04C200.914 45.448 200.818 45.712 200.458 45.88C199.882 46.12 199.21 46.24 198.442 46.24C196.066 46.24 194.866 45.064 194.866 42.736V36.184H193.162C192.754 36.184 192.538 35.968 192.538 35.536V35.2C192.538 34.768 192.754 34.552 193.162 34.552H194.866V31.936C194.866 31.576 195.034 31.336 195.37 31.216L196.642 30.712C197.098 30.544 197.362 30.736 197.362 31.216V34.552H199.762C200.194 34.552 200.41 34.768 200.41 35.2V35.536C200.41 35.968 200.194 36.184 199.762 36.184H197.362V42.784C197.362 44.008 197.842 44.608 198.826 44.608C199.186 44.608 199.498 44.536 199.81 44.416C200.242 44.248 200.53 44.368 200.674 44.728ZM205.772 31.792C205.172 32.368 204.116 32.368 203.54 31.792C202.94 31.216 202.94 30.16 203.516 29.584C204.092 29.008 205.196 29.008 205.772 29.584C206.348 30.16 206.348 31.216 205.772 31.792ZM205.268 46H204.044C203.612 46 203.396 45.784 203.396 45.352V35.2C203.396 34.768 203.612 34.552 204.044 34.552H205.268C205.676 34.552 205.892 34.768 205.892 35.2V45.352C205.892 45.784 205.676 46 205.268 46ZM214.477 46H213.421C213.085 46 212.845 45.832 212.701 45.496L208.621 35.296C208.429 34.888 208.645 34.552 209.125 34.552H210.445C210.853 34.552 211.093 34.72 211.189 35.056L214.237 43.072L217.309 35.056C217.429 34.72 217.669 34.552 218.053 34.552H218.797C219.277 34.552 219.469 34.84 219.301 35.296L215.221 45.496C215.077 45.832 214.837 46 214.477 46ZM227.407 46.24C223.567 46.24 221.215 43.984 221.215 40.264C221.215 38.464 221.767 37.024 222.847 35.944C223.927 34.864 225.343 34.312 227.143 34.312C230.503 34.312 232.591 36.376 232.591 39.736C232.591 39.904 232.591 40.048 232.567 40.144C232.495 40.504 232.279 40.696 231.919 40.696H223.903C224.023 43.168 225.439 44.608 227.719 44.608C228.919 44.608 230.023 44.2 231.031 43.384C231.391 43.072 231.679 43.096 231.919 43.456L232.135 43.72C232.423 44.056 232.398 44.344 232.062 44.608C230.695 45.688 229.159 46.24 227.407 46.24ZM223.975 39.088H229.999C229.831 37 228.871 35.944 227.143 35.944C225.439 35.944 224.287 37.096 223.975 39.088ZM247.675 34.312C249.259 34.312 250.555 34.864 251.562 35.968C252.547 37.072 253.051 38.512 253.051 40.264C253.051 42.04 252.547 43.48 251.562 44.584C250.555 45.688 249.259 46.24 247.675 46.24C246.067 46.24 244.819 45.64 243.955 44.464V50.92C243.955 51.352 243.739 51.568 243.331 51.568H242.107C241.675 51.568 241.459 51.352 241.459 50.92V35.2C241.459 34.768 241.675 34.552 242.107 34.552H243.09C243.523 34.552 243.739 34.768 243.739 35.2V36.4C244.603 35.008 245.923 34.312 247.675 34.312ZM244.747 43.456C245.323 44.224 246.115 44.608 247.123 44.608C248.131 44.608 248.923 44.224 249.499 43.456C250.075 42.688 250.363 41.632 250.363 40.264C250.363 37.576 249.139 35.944 247.123 35.944C245.107 35.944 243.883 37.576 243.883 40.264C243.883 41.632 244.171 42.688 244.747 43.456ZM262.371 34.336C262.779 34.36 262.971 34.576 262.923 35.032L262.851 35.752C262.803 36.136 262.611 36.328 262.275 36.328C262.107 36.304 261.939 36.304 261.795 36.304C259.707 36.304 258.603 37.864 258.603 40.768V45.352C258.603 45.784 258.387 46 257.979 46H256.755C256.323 46 256.107 45.784 256.107 45.352V35.2C256.107 34.768 256.323 34.552 256.755 34.552H257.763C258.171 34.552 258.387 34.768 258.387 35.2V36.88C259.035 35.176 260.259 34.312 262.059 34.312C262.179 34.312 262.299 34.312 262.371 34.336ZM274.941 44.608C273.861 45.688 272.397 46.24 270.597 46.24C268.797 46.24 267.333 45.688 266.253 44.608C265.173 43.528 264.621 42.064 264.621 40.264C264.621 38.464 265.173 37 266.253 35.92C267.333 34.84 268.797 34.312 270.597 34.312C272.397 34.312 273.861 34.84 274.941 35.92C276.021 37 276.573 38.464 276.573 40.264C276.573 42.064 276.021 43.528 274.941 44.608ZM268.173 43.456C268.749 44.224 269.565 44.608 270.597 44.608C271.629 44.608 272.445 44.224 273.045 43.456C273.621 42.712 273.909 41.632 273.909 40.264C273.909 37.552 272.685 35.944 270.597 35.944C268.509 35.944 267.285 37.552 267.285 40.264C267.285 41.632 267.573 42.712 268.173 43.456ZM286.719 28.888C287.127 29.056 287.223 29.344 287.055 29.728L286.911 30.04C286.743 30.376 286.455 30.472 286.071 30.352C285.759 30.232 285.375 30.16 284.967 30.16C283.743 30.16 283.143 30.88 283.143 32.32V34.552H285.543C285.975 34.552 286.191 34.768 286.191 35.2V35.536C286.191 35.968 285.975 36.184 285.543 36.184H283.143V45.352C283.143 45.784 282.927 46 282.519 46H281.295C280.863 46 280.647 45.784 280.647 45.352V36.184H278.943C278.535 36.184 278.319 35.968 278.319 35.536V35.2C278.319 34.768 278.535 34.552 278.943 34.552H280.647V32.512C280.647 29.848 281.991 28.528 284.679 28.528C285.423 28.528 286.095 28.648 286.719 28.888ZM294.133 46.24C290.293 46.24 287.941 43.984 287.941 40.264C287.941 38.464 288.493 37.024 289.573 35.944C290.653 34.864 292.069 34.312 293.869 34.312C297.229 34.312 299.317 36.376 299.317 39.736C299.317 39.904 299.317 40.048 299.293 40.144C299.221 40.504 299.005 40.696 298.645 40.696H290.629C290.749 43.168 292.165 44.608 294.445 44.608C295.645 44.608 296.749 44.2 297.757 43.384C298.117 43.072 298.405 43.096 298.645 43.456L298.861 43.72C299.149 44.056 299.125 44.344 298.789 44.608C297.421 45.688 295.885 46.24 294.133 46.24ZM290.701 39.088H296.725C296.557 37 295.597 35.944 293.869 35.944C292.165 35.944 291.013 37.096 290.701 39.088ZM306.406 46.24C304.726 46.24 303.238 45.832 301.918 45.016C301.558 44.8 301.486 44.488 301.726 44.128L301.942 43.816C302.158 43.456 302.47 43.408 302.83 43.648C303.862 44.296 305.038 44.608 306.358 44.608C308.062 44.608 308.902 44.056 308.902 42.952C308.902 42.064 308.326 41.704 306.31 41.344C303.07 40.792 301.918 39.856 301.918 37.84C301.918 35.656 303.718 34.312 306.574 34.312C307.894 34.312 309.142 34.6 310.294 35.152C310.654 35.344 310.75 35.632 310.534 36.016L310.366 36.328C310.15 36.688 309.862 36.784 309.502 36.592C308.638 36.16 307.726 35.944 306.742 35.944C305.134 35.944 304.342 36.448 304.342 37.48C304.342 38.368 304.918 38.728 307.03 39.088C310.126 39.64 311.302 40.576 311.302 42.592C311.302 44.824 309.454 46.24 306.406 46.24ZM318.312 46.24C316.632 46.24 315.144 45.832 313.824 45.016C313.464 44.8 313.392 44.488 313.632 44.128L313.848 43.816C314.064 43.456 314.376 43.408 314.736 43.648C315.768 44.296 316.944 44.608 318.264 44.608C319.968 44.608 320.808 44.056 320.808 42.952C320.808 42.064 320.232 41.704 318.216 41.344C314.976 40.792 313.824 39.856 313.824 37.84C313.824 35.656 315.624 34.312 318.48 34.312C319.8 34.312 321.048 34.6 322.2 35.152C322.56 35.344 322.656 35.632 322.44 36.016L322.272 36.328C322.056 36.688 321.768 36.784 321.408 36.592C320.544 36.16 319.632 35.944 318.648 35.944C317.04 35.944 316.248 36.448 316.248 37.48C316.248 38.368 316.824 38.728 318.936 39.088C322.032 39.64 323.208 40.576 323.208 42.592C323.208 44.824 321.36 46.24 318.312 46.24ZM328.608 31.792C328.008 32.368 326.952 32.368 326.376 31.792C325.776 31.216 325.776 30.16 326.352 29.584C326.928 29.008 328.032 29.008 328.608 29.584C329.184 30.16 329.184 31.216 328.608 31.792ZM328.104 46H326.88C326.448 46 326.232 45.784 326.232 45.352V35.2C326.232 34.768 326.448 34.552 326.88 34.552H328.104C328.512 34.552 328.728 34.768 328.728 35.2V45.352C328.728 45.784 328.512 46 328.104 46ZM342.089 44.608C341.009 45.688 339.545 46.24 337.745 46.24C335.945 46.24 334.481 45.688 333.401 44.608C332.321 43.528 331.769 42.064 331.769 40.264C331.769 38.464 332.321 37 333.401 35.92C334.481 34.84 335.945 34.312 337.745 34.312C339.545 34.312 341.009 34.84 342.089 35.92C343.169 37 343.721 38.464 343.721 40.264C343.721 42.064 343.169 43.528 342.089 44.608ZM335.321 43.456C335.897 44.224 336.713 44.608 337.745 44.608C338.777 44.608 339.593 44.224 340.193 43.456C340.769 42.712 341.057 41.632 341.057 40.264C341.057 37.552 339.833 35.944 337.745 35.944C335.657 35.944 334.433 37.552 334.433 40.264C334.433 41.632 334.721 42.712 335.321 43.456ZM352.955 34.312C355.547 34.312 356.963 35.848 356.963 38.704V45.352C356.963 45.784 356.747 46 356.339 46H355.115C354.683 46 354.467 45.784 354.467 45.352V39.016C354.467 37.096 353.723 36.136 352.211 36.136C350.315 36.136 349.259 37.6 349.259 40.264V45.352C349.259 45.784 349.043 46 348.635 46H347.411C346.979 46 346.763 45.784 346.763 45.352V35.2C346.763 34.768 346.979 34.552 347.411 34.552H348.419C348.827 34.552 349.043 34.768 349.043 35.2V36.64C349.787 35.08 351.083 34.312 352.955 34.312ZM365.296 34.312C368.56 34.312 370.192 35.824 370.192 38.872V45.352C370.192 45.784 369.976 46 369.568 46H368.56C368.128 46 367.912 45.784 367.912 45.352V43.912C367.144 45.472 365.8 46.24 363.856 46.24C361.456 46.24 359.872 44.848 359.872 42.712C359.872 40.48 361.624 39.088 364.576 39.088C365.824 39.088 366.856 39.256 367.696 39.568V39.04C367.696 37.024 366.736 36.016 364.792 36.016C363.76 36.016 362.8 36.328 361.912 36.952C361.552 37.192 361.24 37.144 361 36.808L360.808 36.496C360.592 36.136 360.64 35.848 360.952 35.608C362.176 34.744 363.64 34.312 365.296 34.312ZM364.552 44.608C366.304 44.608 367.504 43.24 367.672 41.032C366.976 40.744 366.136 40.6 365.152 40.6C363.424 40.6 362.56 41.272 362.56 42.64C362.56 43.864 363.328 44.608 364.552 44.608ZM375.635 46H374.411C373.979 46 373.763 45.784 373.763 45.352V29.416C373.763 28.984 373.979 28.768 374.411 28.768H375.635C376.043 28.768 376.259 28.984 376.259 29.416V45.352C376.259 45.784 376.043 46 375.635 46ZM384.124 46.24C382.444 46.24 380.956 45.832 379.636 45.016C379.276 44.8 379.204 44.488 379.444 44.128L379.66 43.816C379.876 43.456 380.188 43.408 380.548 43.648C381.58 44.296 382.756 44.608 384.076 44.608C385.78 44.608 386.62 44.056 386.62 42.952C386.62 42.064 386.044 41.704 384.028 41.344C380.788 40.792 379.636 39.856 379.636 37.84C379.636 35.656 381.436 34.312 384.292 34.312C385.612 34.312 386.86 34.6 388.012 35.152C388.372 35.344 388.468 35.632 388.252 36.016L388.084 36.328C387.868 36.688 387.58 36.784 387.22 36.592C386.356 36.16 385.444 35.944 384.46 35.944C382.852 35.944 382.06 36.448 382.06 37.48C382.06 38.368 382.636 38.728 384.748 39.088C387.844 39.64 389.02 40.576 389.02 42.592C389.02 44.824 387.172 46.24 384.124 46.24Z" fill="white"/>
<path d="M430 14L435.274 20.0383L442.975 17.8099L444.148 25.741L451.831 28.03L448.529 35.3359L453.756 41.4156L447.028 45.7766L448.138 53.7167L440.121 53.7483L436.762 61.0278L430 56.72L423.238 61.0278L419.879 53.7483L411.862 53.7167L412.972 45.7766L406.244 41.4156L411.471 35.3359L408.169 28.03L415.852 25.741L417.025 17.8099L424.726 20.0383L430 14Z" fill="white"/>
<path d="M433.273 38.0004H421" stroke="black" stroke-width="2" stroke-linecap="square"/>
<path d="M439 38.0004L431.636 44.3775V31.6233L439 38.0004Z" fill="black"/>
</svg>
