<svg width="24" height="24" viewBox="0 0 24 24" fill="none" xmlns="http://www.w3.org/2000/svg">
<g clip-path="url(#clip0_0_36)">
<path fill-rule="evenodd" clip-rule="evenodd" d="M12 0C5.38125 0 0 5.38125 0 12C0 18.6187 5.38125 24 12 24C18.6187 24 24 18.6187 24 12C24 5.38125 18.6187 0 12 0Z" fill="#FEBB34"/>
<path fill-rule="evenodd" clip-rule="evenodd" d="M17.8031 7.95464C18.0937 8.24526 18.0937 8.72339 17.8031 9.01401L10.7719 16.0453C10.6265 16.1906 10.4344 16.2656 10.2422 16.2656C10.05 16.2656 9.85779 16.1906 9.71248 16.0453L6.19685 12.5296C5.90623 12.239 5.90623 11.7609 6.19685 11.4703C6.48748 11.1796 6.9656 11.1796 7.25623 11.4703L10.2422 14.4562L16.7437 7.95464C17.0344 7.65933 17.5125 7.65933 17.8031 7.95464Z" fill="white"/>
</g>
<defs>
<clipPath id="clip0_0_36">
<rect width="24" height="24" fill="white"/>
</clipPath>
</defs>
</svg>
