<svg width="1892" height="770" viewBox="0 0 1892 770" fill="none" xmlns="http://www.w3.org/2000/svg">
<path d="M158.624 135.496V133.496H156.624V135.496H158.624ZM294.272 135.496H296.272V133.496H294.272V135.496ZM286.496 58.168L288.046 59.4325L289.084 58.1594L288.037 56.8932L286.496 58.168ZM255.824 95.752L254.288 97.0324L255.84 98.8954L257.374 97.0165L255.824 95.752ZM240.272 178.264L242.268 178.396L242.409 176.264H240.272V178.264ZM158.624 178.264H156.624V180.264H158.624V178.264ZM158.624 137.496H294.272V133.496H158.624V137.496ZM292.272 135.496V159.256H296.272V135.496H292.272ZM292.272 159.256C292.272 219.947 273.42 257.334 246.766 279.599C220.044 301.921 185.15 309.32 152.576 309.32V313.32C185.666 313.32 221.62 305.815 249.33 282.669C277.108 259.466 296.272 220.821 296.272 159.256H292.272ZM152.576 309.32C72.3265 309.32 2.08 253.058 2.08 160.12H-1.92C-1.92 255.534 70.3935 313.32 152.576 313.32V309.32ZM2.08 160.12V151.48H-1.92V160.12H2.08ZM2.08 151.48C2.08 104.493 19.6846 67.2368 47.4943 41.7135C75.3267 16.1694 113.491 2.27998 154.736 2.27998V-1.72002C112.605 -1.72002 73.4413 12.4705 44.7897 38.7665C16.1154 65.0832 -1.92 103.427 -1.92 151.48H2.08ZM154.736 2.27998C209.056 2.27998 256.423 24.9489 284.955 59.4427L288.037 56.8932C258.681 21.4031 210.144 -1.72002 154.736 -1.72002V2.27998ZM284.947 56.9035L254.275 94.4875L257.374 97.0165L288.046 59.4325L284.947 56.9035ZM257.36 94.4716C243.182 77.4572 228.702 65.5808 212.389 57.9753C196.076 50.3697 178.059 47.096 156.896 47.096V51.096C177.637 51.096 195.044 54.3022 210.699 61.6007C226.354 68.8991 240.386 80.3508 254.288 97.0324L257.36 94.4716ZM156.896 47.096C130.35 47.096 103.833 55.6497 83.9231 73.023C63.9725 90.4314 50.784 116.587 50.784 151.48H54.784C54.784 117.685 67.5155 92.6485 86.5529 76.0369C105.631 59.3902 131.17 51.096 156.896 51.096V47.096ZM50.784 151.48V160.12H54.784V151.48H50.784ZM50.784 160.12C50.784 196.502 63.9558 222.664 83.3789 239.707C102.756 256.711 128.199 264.504 152.576 264.504V260.504C129.001 260.504 104.548 252.961 86.0171 236.701C67.5322 220.48 54.784 195.45 54.784 160.12H50.784ZM152.576 264.504C173.028 264.504 194.292 261.362 211.064 248.88C227.921 236.335 239.865 214.647 242.268 178.396L238.276 178.132C235.927 213.593 224.327 234.025 208.676 245.672C192.94 257.382 172.732 260.504 152.576 260.504V264.504ZM240.272 176.264H158.624V180.264H240.272V176.264ZM160.624 178.264V135.496H156.624V178.264H160.624ZM358.876 307H356.876V309H358.876V307ZM358.876 4.59998V2.59998H356.876V4.59998H358.876ZM558.892 4.59998H560.892V2.59998H558.892V4.59998ZM558.892 52.552V54.552H560.892V52.552H558.892ZM410.716 52.552V50.552H408.716V52.552H410.716ZM410.716 132.904H408.716V134.904H410.716V132.904ZM558.892 132.904H560.892V130.904H558.892V132.904ZM558.892 178.264V180.264H560.892V178.264H558.892ZM410.716 178.264V176.264H408.716V178.264H410.716ZM410.716 259.048H408.716V261.048H410.716V259.048ZM558.892 259.048H560.892V257.048H558.892V259.048ZM558.892 307V309H560.892V307H558.892ZM360.876 307V4.59998H356.876V307H360.876ZM358.876 6.59998H558.892V2.59998H358.876V6.59998ZM556.892 4.59998V52.552H560.892V4.59998H556.892ZM558.892 50.552H410.716V54.552H558.892V50.552ZM408.716 52.552V132.904H412.716V52.552H408.716ZM410.716 134.904H558.892V130.904H410.716V134.904ZM556.892 132.904V178.264H560.892V132.904H556.892ZM558.892 176.264H410.716V180.264H558.892V176.264ZM408.716 178.264V259.048H412.716V178.264H408.716ZM410.716 261.048H558.892V257.048H410.716V261.048ZM556.892 259.048V307H560.892V259.048H556.892ZM558.892 305H358.876V309H558.892V305ZM694.783 307H692.783V309H694.783V307ZM694.783 52.552H696.783V50.552H694.783V52.552ZM592.399 52.552H590.399V54.552H592.399V52.552ZM592.399 4.59998V2.59998H590.399V4.59998H592.399ZM849.007 4.59998H851.007V2.59998H849.007V4.59998ZM849.007 52.552V54.552H851.007V52.552H849.007ZM746.623 52.552V50.552H744.623V52.552H746.623ZM746.623 307V309H748.623V307H746.623ZM696.783 307V52.552H692.783V307H696.783ZM694.783 50.552H592.399V54.552H694.783V50.552ZM594.399 52.552V4.59998H590.399V52.552H594.399ZM592.399 6.59998H849.007V2.59998H592.399V6.59998ZM847.007 4.59998V52.552H851.007V4.59998H847.007ZM849.007 50.552H746.623V54.552H849.007V50.552ZM744.623 52.552V307H748.623V52.552H744.623ZM746.623 305H694.783V309H746.623V305ZM8.72 765H6.72V767H8.72V765ZM8.72 462.6V460.6H6.72V462.6H8.72ZM60.56 462.6H62.56V460.6H60.56V462.6ZM60.56 765V767H62.56V765H60.56ZM10.72 765V462.6H6.72V765H10.72ZM8.72 464.6H60.56V460.6H8.72V464.6ZM58.56 462.6V765H62.56V462.6H58.56ZM60.56 763H8.72V767H60.56V763ZM134.017 765H132.017V767H134.017V765ZM134.017 458.28V456.28H132.017V458.28H134.017ZM144.385 458.28L145.77 456.837L145.19 456.28H144.385V458.28ZM362.545 667.8L361.16 669.242L364.545 672.494V667.8H362.545ZM362.545 462.6V460.6H360.545V462.6H362.545ZM413.521 462.6H415.521V460.6H413.521V462.6ZM413.521 769.32V771.32H415.521V769.32H413.521ZM403.153 769.32L401.768 770.763L402.348 771.32H403.153V769.32ZM185.857 560.664L187.242 559.221L183.857 555.971V560.664H185.857ZM185.857 765V767H187.857V765H185.857ZM136.017 765V458.28H132.017V765H136.017ZM134.017 460.28H144.385V456.28H134.017V460.28ZM143 459.722L361.16 669.242L363.93 666.357L145.77 456.837L143 459.722ZM364.545 667.8V462.6H360.545V667.8H364.545ZM362.545 464.6H413.521V460.6H362.545V464.6ZM411.521 462.6V769.32H415.521V462.6H411.521ZM413.521 767.32H403.153V771.32H413.521V767.32ZM404.538 767.877L187.242 559.221L184.472 562.107L401.768 770.763L404.538 767.877ZM183.857 560.664V765H187.857V560.664H183.857ZM185.857 763H134.017V767H185.857V763ZM675.799 765H673.799V767H675.799V765ZM675.799 510.552H677.799V508.552H675.799V510.552ZM573.415 510.552H571.415V512.552H573.415V510.552ZM573.415 462.6V460.6H571.415V462.6H573.415ZM830.023 462.6H832.023V460.6H830.023V462.6ZM830.023 510.552V512.552H832.023V510.552H830.023ZM727.639 510.552V508.552H725.639V510.552H727.639ZM727.639 765V767H729.639V765H727.639ZM677.799 765V510.552H673.799V765H677.799ZM675.799 508.552H573.415V512.552H675.799V508.552ZM575.415 510.552V462.6H571.415V510.552H575.415ZM573.415 464.6H830.023V460.6H573.415V464.6ZM828.023 462.6V510.552H832.023V462.6H828.023ZM830.023 508.552H727.639V512.552H830.023V508.552ZM725.639 510.552V765H729.639V510.552H725.639ZM727.639 763H675.799V767H727.639V763ZM1010.42 767.32C925.333 767.32 852.58 710.981 852.58 618.12H848.58C848.58 713.611 923.571 771.32 1010.42 771.32V767.32ZM852.58 618.12V609.48H848.58V618.12H852.58ZM852.58 609.48C852.58 562.518 870.814 525.267 899.589 499.736C928.392 474.181 967.861 460.28 1010.42 460.28V456.28C967.011 456.28 926.56 470.459 896.935 496.744C867.282 523.053 848.58 561.402 848.58 609.48H852.58ZM1010.42 460.28C1052.76 460.28 1092.12 474.179 1120.87 499.735C1149.59 525.266 1167.83 562.518 1167.83 609.48H1171.83C1171.83 561.402 1153.13 523.054 1123.53 496.745C1093.96 470.461 1053.62 456.28 1010.42 456.28V460.28ZM1167.83 609.48V618.12H1171.83V609.48H1167.83ZM1167.83 618.12C1167.83 710.984 1095.07 767.32 1010.42 767.32V771.32C1096.84 771.32 1171.83 713.608 1171.83 618.12H1167.83ZM1010.42 722.504C1069.23 722.504 1119.12 682.905 1119.12 618.12H1115.12C1115.12 680.343 1067.39 718.504 1010.42 718.504V722.504ZM1119.12 618.12V609.48H1115.12V618.12H1119.12ZM1119.12 609.48C1119.12 544.695 1069.23 505.096 1010.42 505.096V509.096C1067.39 509.096 1115.12 547.257 1115.12 609.48H1119.12ZM1010.42 505.096C951.624 505.096 901.284 544.685 901.284 609.48H905.284C905.284 547.267 953.44 509.096 1010.42 509.096V505.096ZM901.284 609.48V618.12H905.284V609.48H901.284ZM901.284 618.12C901.284 682.915 951.624 722.504 1010.42 722.504V718.504C953.44 718.504 905.284 680.333 905.284 618.12H901.284ZM1286.11 462.6H1288.11V460.6H1286.11V462.6ZM1445.08 462.6V460.6H1443.08V462.6H1445.08ZM1496.92 462.6H1498.92V460.6H1496.92V462.6ZM1234.27 462.6V460.6H1232.27V462.6H1234.27ZM1284.11 462.6V639.72H1288.11V462.6H1284.11ZM1284.11 639.72C1284.11 668.995 1291.76 689.802 1305.84 703.266C1319.9 716.713 1340.04 722.504 1364.3 722.504V718.504C1340.61 718.504 1321.65 712.847 1308.6 700.374C1295.58 687.918 1288.11 668.333 1288.11 639.72H1284.11ZM1364.3 722.504C1388.56 722.504 1409.32 716.714 1424.02 703.297C1438.76 689.85 1447.08 669.042 1447.08 639.72H1443.08C1443.08 668.286 1434.99 687.87 1421.32 700.343C1407.62 712.846 1387.99 718.504 1364.3 718.504V722.504ZM1447.08 639.72V462.6H1443.08V639.72H1447.08ZM1445.08 464.6H1496.92V460.6H1445.08V464.6ZM1494.92 462.6V639.72H1498.92V462.6H1494.92ZM1494.92 639.72C1494.92 686.452 1482.18 718.22 1459.73 738.347C1437.24 758.512 1404.66 767.32 1364.3 767.32V771.32C1405.15 771.32 1438.88 762.416 1462.4 741.325C1485.97 720.196 1498.92 687.164 1498.92 639.72H1494.92ZM1364.3 767.32C1323.94 767.32 1292.02 758.512 1270.18 738.366C1248.38 718.25 1236.27 686.482 1236.27 639.72H1232.27C1232.27 687.134 1244.56 720.166 1267.47 741.306C1290.35 762.416 1323.45 771.32 1364.3 771.32V767.32ZM1236.27 639.72V462.6H1232.27V639.72H1236.27ZM1234.27 464.6H1286.11V460.6H1234.27V464.6ZM1817.17 668.232L1818.74 666.985L1817.01 664.821L1815.5 667.139L1817.17 668.232ZM1847.85 706.68L1849.5 707.797L1850.32 706.58L1849.41 705.433L1847.85 706.68ZM1847.85 520.92L1849.39 522.185L1850.34 521.021L1849.49 519.784L1847.85 520.92ZM1817.17 558.504L1815.52 559.635L1817.03 561.838L1818.72 559.769L1817.17 558.504ZM1815.61 669.479L1846.28 707.927L1849.41 705.433L1818.74 666.985L1815.61 669.479ZM1846.19 705.563C1817.31 748.447 1760.19 767.32 1714.79 767.32V771.32C1760.97 771.32 1819.62 752.177 1849.5 707.797L1846.19 705.563ZM1714.79 767.32C1636.67 767.32 1563.86 711.034 1563.86 618.12H1559.86C1559.86 713.558 1634.79 771.32 1714.79 771.32V767.32ZM1563.86 618.12V609.48H1559.86V618.12H1563.86ZM1563.86 609.48C1563.86 515.716 1636.66 460.28 1715.65 460.28V456.28C1634.81 456.28 1559.86 513.164 1559.86 609.48H1563.86ZM1715.65 460.28C1762.74 460.28 1816.88 479.559 1846.2 522.056L1849.49 519.784C1819.2 475.881 1763.61 456.28 1715.65 456.28V460.28ZM1846.3 519.655L1815.62 557.239L1818.72 559.769L1849.39 522.185L1846.3 519.655ZM1818.82 557.373C1792.05 518.304 1755.96 505.096 1720.41 505.096V509.096C1754.84 509.096 1789.6 521.807 1815.52 559.635L1818.82 557.373ZM1720.41 505.096C1689.53 505.096 1662.55 514.956 1643.28 533.015C1623.99 551.088 1612.57 577.232 1612.57 609.48H1616.57C1616.57 578.224 1627.61 553.176 1646.01 535.933C1664.43 518.676 1690.37 509.096 1720.41 509.096V505.096ZM1612.57 609.48V618.12H1616.57V609.48H1612.57ZM1612.57 618.12C1612.57 650.35 1623.65 676.497 1642.78 694.58C1661.9 712.649 1688.89 722.504 1720.41 722.504V718.504C1689.72 718.504 1663.78 708.919 1645.53 691.672C1627.3 674.439 1616.57 649.394 1616.57 618.12H1612.57ZM1720.41 722.504C1755.94 722.504 1792.49 709.737 1818.85 669.325L1815.5 667.139C1790.01 706.215 1754.85 718.504 1720.41 718.504V722.504ZM1904.63 764.568H1902.63V766.568H1904.63V764.568ZM1904.63 462.168V460.168H1902.63V462.168H1904.63ZM1956.47 462.168H1958.47V460.168H1956.47V462.168ZM1956.47 587.88H1954.47V589.88H1956.47V587.88ZM2144.39 587.88V589.88H2146.39V587.88H2144.39ZM2144.39 462.168V460.168H2142.39V462.168H2144.39ZM2196.23 462.168H2198.23V460.168H2196.23V462.168ZM2196.23 764.568V766.568H2198.23V764.568H2196.23ZM2144.39 764.568H2142.39V766.568H2144.39V764.568ZM2144.39 633.24H2146.39V631.24H2144.39V633.24ZM1956.47 633.24V631.24H1954.47V633.24H1956.47ZM1956.47 764.568V766.568H1958.47V764.568H1956.47ZM1906.63 764.568V462.168H1902.63V764.568H1906.63ZM1904.63 464.168H1956.47V460.168H1904.63V464.168ZM1954.47 462.168V587.88H1958.47V462.168H1954.47ZM1956.47 589.88H2144.39V585.88H1956.47V589.88ZM2146.39 587.88V462.168H2142.39V587.88H2146.39ZM2144.39 464.168H2196.23V460.168H2144.39V464.168ZM2194.23 462.168V764.568H2198.23V462.168H2194.23ZM2196.23 762.568H2144.39V766.568H2196.23V762.568ZM2146.39 764.568V633.24H2142.39V764.568H2146.39ZM2144.39 631.24H1956.47V635.24H2144.39V631.24ZM1954.47 633.24V764.568H1958.47V633.24H1954.47ZM1956.47 762.568H1904.63V766.568H1956.47V762.568Z" fill="black"/>
</svg>
