<svg width="939" height="194" viewBox="0 0 939 194" fill="none" xmlns="http://www.w3.org/2000/svg">
<path d="M83.19 191V31.79H0.83V0.179985H205.57V31.79H123.21V191H83.19ZM388.025 116.47V128.07H240.125C242.735 149.82 256.655 167.51 300.445 167.51C338.435 167.51 351.775 156.2 354.095 144.31H388.025C386.285 169.25 361.635 193.9 300.445 193.9C224.755 193.9 202.715 156.2 202.715 120.53C202.715 74.71 237.805 44.84 298.125 44.84C359.315 44.84 388.025 72.1 388.025 116.47ZM354.095 105.74V104.87C354.095 85.73 338.725 71.23 299.575 71.23C263.615 71.23 246.215 83.41 241.285 105.74H354.095ZM491.442 193.61C439.242 193.61 420.102 171.28 420.102 148.66C420.102 120.82 443.012 109.22 478.972 109.22H565.102V106.32C565.102 82.83 549.152 71.23 509.712 71.23C472.302 71.23 460.122 81.67 460.122 93.85C460.122 94.72 460.122 95.59 460.412 97.33H425.032C424.742 94.72 424.742 92.69 424.742 92.11C424.742 64.27 450.842 44.84 510.582 44.84C571.482 44.84 602.222 69.78 602.222 109.8V191H565.102C565.972 181.14 566.552 166.35 566.842 156.49H566.552C560.172 179.4 539.582 193.61 491.442 193.61ZM498.692 167.51C544.512 167.51 565.102 148.95 565.102 132.13V131.26H487.672C465.922 131.26 454.032 133.58 454.032 147.21C454.032 156.78 462.152 167.51 498.692 167.51ZM637.206 191V47.74H674.326L673.746 90.08H674.036C683.606 60.79 705.066 44.84 740.446 44.84C779.016 44.84 799.896 62.53 805.116 89.79H805.406C813.236 59.63 837.596 44.84 872.686 44.84C917.926 44.84 938.226 68.62 938.226 106.9V191H901.106V116.47C901.106 89.79 889.216 75.29 859.056 75.29C834.986 75.29 806.276 89.79 806.276 126.04V191H769.156V116.47C769.156 89.79 756.976 75.29 726.816 75.29C702.746 75.29 674.326 91.53 674.326 126.04V191H637.206Z" fill="url(#paint0_linear_0_426)"/>
<defs>
<linearGradient id="paint0_linear_0_426" x1="969.927" y1="95.5001" x2="-7" y2="95.5001" gradientUnits="userSpaceOnUse">
<stop stop-color="white" stop-opacity="0"/>
<stop offset="0.458333" stop-color="white"/>
<stop offset="1" stop-color="white" stop-opacity="0"/>
</linearGradient>
</defs>
</svg>
