<svg width="407" height="216" viewBox="0 0 407 216" fill="none" xmlns="http://www.w3.org/2000/svg">
<mask id="mask0_0_206" style="mask-type:alpha" maskUnits="userSpaceOnUse" x="10" y="0" width="380" height="216">
<path d="M19.8 213V169.8L97.5 103.5C113.7 89.7 120.3 78.9 120.3 67.2C120.3 53.4 111.3 43.8 92.7 43.8C76.2 43.8 60.9 47.4 40.2 69.9L10.2 39.3C33.6 13.8 60.6 -1.14441e-05 96 -1.14441e-05C140.4 -1.14441e-05 168 24.6 168 64.8C168 99.3 149.4 118.8 113.4 148.8L90 169.8H174V213H19.8ZM293.995 216C237.595 216 197.695 176.4 197.695 111V105C197.695 39 237.595 -1.14441e-05 293.995 -1.14441e-05C360.595 -1.14441e-05 389.995 39 389.995 105V111C389.995 176.4 360.595 216 293.995 216ZM293.995 172.2C322.795 172.2 342.895 153.6 342.895 111V105C342.895 62.4 322.795 43.8 293.995 43.8C264.895 43.8 244.795 62.4 244.795 105V111C244.795 153.6 264.895 172.2 293.995 172.2Z" fill="white"/>
</mask>
<g mask="url(#mask0_0_206)">
<path d="M-178 227.5L217 -222" stroke="white" stroke-linecap="square"/>
<path d="M-176 230.5L219 -219" stroke="white" stroke-width="2" stroke-linecap="square"/>
<path d="M-174 233.5L221 -216" stroke="white" stroke-width="2" stroke-linecap="square"/>
<path d="M-172 236.5L223 -213" stroke="white" stroke-width="2" stroke-linecap="square"/>
<path d="M-170 239.5L225 -210" stroke="white" stroke-width="2" stroke-linecap="square"/>
<path d="M-168 242.5L227 -207" stroke="white" stroke-width="2" stroke-linecap="square"/>
<path d="M-166 245.5L229 -204" stroke="white" stroke-width="2" stroke-linecap="square"/>
<path d="M-164 248.5L231 -201" stroke="white" stroke-width="2" stroke-linecap="square"/>
<path d="M-162 251.5L233 -198" stroke="white" stroke-width="2" stroke-linecap="square"/>
<path d="M-160 254.5L235 -195" stroke="white" stroke-width="2" stroke-linecap="square"/>
<path d="M-158 257.5L237 -192" stroke="white" stroke-width="2" stroke-linecap="square"/>
<path d="M-156 260.5L239 -189" stroke="white" stroke-width="2" stroke-linecap="square"/>
<path d="M-154 263.5L241 -186" stroke="white" stroke-width="2" stroke-linecap="square"/>
<path d="M-152 266.5L243 -183" stroke="white" stroke-width="2" stroke-linecap="square"/>
<path d="M-150 269.5L245 -180" stroke="white" stroke-width="2" stroke-linecap="square"/>
<path d="M-148 272.5L247 -177" stroke="white" stroke-width="2" stroke-linecap="square"/>
<path d="M-146 275.5L249 -174" stroke="white" stroke-width="2" stroke-linecap="square"/>
<path d="M-144 278.5L251 -171" stroke="white" stroke-width="2" stroke-linecap="square"/>
<path d="M-142 281.5L253 -168" stroke="white" stroke-width="2" stroke-linecap="square"/>
<path d="M-140 284.5L255 -165" stroke="white" stroke-width="2" stroke-linecap="square"/>
<path d="M-138 287.5L257 -162" stroke="white" stroke-width="2" stroke-linecap="square"/>
<path d="M-136 290.5L259 -159" stroke="white" stroke-width="2" stroke-linecap="square"/>
<path d="M-134 293.5L261 -156" stroke="white" stroke-width="2" stroke-linecap="square"/>
<path d="M-132 296.5L263 -153" stroke="white" stroke-width="2" stroke-linecap="square"/>
<path d="M-130 299.5L265 -150" stroke="white" stroke-width="2" stroke-linecap="square"/>
<path d="M-128 302.5L267 -147" stroke="white" stroke-width="2" stroke-linecap="square"/>
<path d="M-126 305.5L269 -144" stroke="white" stroke-width="2" stroke-linecap="square"/>
<path d="M-124 308.5L271 -141" stroke="white" stroke-width="2" stroke-linecap="square"/>
<path d="M-122 311.5L273 -138" stroke="white" stroke-width="2" stroke-linecap="square"/>
<path d="M-120 314.5L275 -135" stroke="white" stroke-width="2" stroke-linecap="square"/>
<path d="M-118 317.5L277 -132" stroke="white" stroke-width="2" stroke-linecap="square"/>
<path d="M-116 320.5L279 -129" stroke="white" stroke-width="2" stroke-linecap="square"/>
<path d="M-114 323.5L281 -126" stroke="white" stroke-width="2" stroke-linecap="square"/>
<path d="M-112 326.5L283 -123" stroke="white" stroke-width="2" stroke-linecap="square"/>
<path d="M-110 329.5L285 -120" stroke="white" stroke-width="2" stroke-linecap="square"/>
<path d="M-108 332.5L287 -117" stroke="white" stroke-width="2" stroke-linecap="square"/>
<path d="M-106 335.5L289 -114" stroke="white" stroke-width="2" stroke-linecap="square"/>
<path d="M-104 338.5L291 -111" stroke="white" stroke-width="2" stroke-linecap="square"/>
<path d="M-102 341.5L293 -108" stroke="white" stroke-width="2" stroke-linecap="square"/>
<path d="M-100 344.5L295 -105" stroke="white" stroke-width="2" stroke-linecap="square"/>
<path d="M-98 347.5L297 -102" stroke="white" stroke-width="2" stroke-linecap="square"/>
<path d="M-96 350.5L299 -99" stroke="white" stroke-width="2" stroke-linecap="square"/>
<path d="M-94 353.5L301 -96" stroke="white" stroke-width="2" stroke-linecap="square"/>
<path d="M-92 356.5L303 -93" stroke="white" stroke-width="2" stroke-linecap="square"/>
<path d="M-90 359.5L305 -90" stroke="white" stroke-width="2" stroke-linecap="square"/>
<path d="M-88 362.5L307 -87" stroke="white" stroke-width="2" stroke-linecap="square"/>
<path d="M-86 365.5L309 -84" stroke="white" stroke-width="2" stroke-linecap="square"/>
<path d="M-84 368.5L311 -81" stroke="white" stroke-width="2" stroke-linecap="square"/>
<path d="M-82 371.5L313 -78" stroke="white" stroke-width="2" stroke-linecap="square"/>
<path d="M-80 374.5L315 -75" stroke="white" stroke-width="2" stroke-linecap="square"/>
<path d="M-78 377.5L317 -72" stroke="white" stroke-width="2" stroke-linecap="square"/>
<path d="M-76 380.5L319 -69" stroke="white" stroke-width="2" stroke-linecap="square"/>
<path d="M-74 383.5L321 -66" stroke="white" stroke-width="2" stroke-linecap="square"/>
<path d="M-72 386.5L323 -63" stroke="white" stroke-width="2" stroke-linecap="square"/>
<path d="M-70 389.5L325 -60" stroke="white" stroke-width="2" stroke-linecap="square"/>
<path d="M-68 392.5L327 -57" stroke="white" stroke-width="2" stroke-linecap="square"/>
<path d="M-66 395.5L329 -54" stroke="white" stroke-width="2" stroke-linecap="square"/>
<path d="M-64 398.5L331 -51" stroke="white" stroke-width="2" stroke-linecap="square"/>
<path d="M-62 401.5L333 -48" stroke="white" stroke-width="2" stroke-linecap="square"/>
<path d="M-60 404.5L335 -45" stroke="white" stroke-width="2" stroke-linecap="square"/>
<path d="M-58 407.5L337 -42" stroke="white" stroke-width="2" stroke-linecap="square"/>
<path d="M-56 410.5L339 -39" stroke="white" stroke-width="2" stroke-linecap="square"/>
<path d="M-54 413.5L341 -36" stroke="white" stroke-width="2" stroke-linecap="square"/>
<path d="M-52 416.5L343 -33" stroke="white" stroke-width="2" stroke-linecap="square"/>
<path d="M-50 419.5L345 -30" stroke="white" stroke-width="2" stroke-linecap="square"/>
<path d="M-48 422.5L347 -27" stroke="white" stroke-width="2" stroke-linecap="square"/>
<path d="M-46 425.5L349 -24" stroke="white" stroke-width="2" stroke-linecap="square"/>
<path d="M-44 428.5L351 -21" stroke="white" stroke-width="2" stroke-linecap="square"/>
<path d="M-42 431.5L353 -18" stroke="white" stroke-width="2" stroke-linecap="square"/>
<path d="M-40 434.5L355 -15" stroke="white" stroke-width="2" stroke-linecap="square"/>
<path d="M-38 437.5L357 -12" stroke="white" stroke-width="2" stroke-linecap="square"/>
<path d="M-36 440.5L359 -9" stroke="white" stroke-width="2" stroke-linecap="square"/>
<path d="M-34 443.5L361 -6" stroke="white" stroke-width="2" stroke-linecap="square"/>
<path d="M-32 446.5L363 -3" stroke="white" stroke-width="2" stroke-linecap="square"/>
<path d="M-30 449.5L365 0" stroke="white" stroke-width="2" stroke-linecap="square"/>
<path d="M-28 452.5L367 3" stroke="white" stroke-width="2" stroke-linecap="square"/>
<path d="M-26 455.5L369 6" stroke="white" stroke-width="2" stroke-linecap="square"/>
<path d="M-24 458.5L371 9" stroke="white" stroke-width="2" stroke-linecap="square"/>
<path d="M-22 461.5L373 12" stroke="white" stroke-width="2" stroke-linecap="square"/>
<path d="M-20 464.5L375 15" stroke="white" stroke-width="2" stroke-linecap="square"/>
<path d="M-18 467.5L377 18" stroke="white" stroke-width="2" stroke-linecap="square"/>
<path d="M-16 470.5L379 21" stroke="white" stroke-width="2" stroke-linecap="square"/>
<path d="M-14 473.5L381 24" stroke="white" stroke-width="2" stroke-linecap="square"/>
<path d="M-12 476.5L383 27" stroke="white" stroke-width="2" stroke-linecap="square"/>
<path d="M-10 479.5L385 30" stroke="white" stroke-width="2" stroke-linecap="square"/>
<path d="M-8 482.5L387 33" stroke="white" stroke-width="2" stroke-linecap="square"/>
<path d="M-6 485.5L389 36" stroke="white" stroke-width="2" stroke-linecap="square"/>
<path d="M-4 488.5L391 39" stroke="white" stroke-width="2" stroke-linecap="square"/>
<path d="M-2 491.5L393 42" stroke="white" stroke-width="2" stroke-linecap="square"/>
<path d="M0 494.5L395 45" stroke="white" stroke-width="2" stroke-linecap="square"/>
<path d="M2 497.5L397 48" stroke="white" stroke-width="2" stroke-linecap="square"/>
<path d="M4 500.5L399 51" stroke="white" stroke-width="2" stroke-linecap="square"/>
<path d="M6 503.5L401 54" stroke="white" stroke-width="2" stroke-linecap="square"/>
<path d="M8 506.5L403 57" stroke="white" stroke-width="2" stroke-linecap="square"/>
<path d="M10 509.5L405 60" stroke="white" stroke-width="2" stroke-linecap="square"/>
<path d="M12 512.5L407 63" stroke="white" stroke-width="2" stroke-linecap="square"/>
<path d="M14 515.5L409 66" stroke="white" stroke-width="2" stroke-linecap="square"/>
<path d="M16 518.5L411 69" stroke="white" stroke-width="2" stroke-linecap="square"/>
<path d="M18 521.5L413 72" stroke="white" stroke-width="2" stroke-linecap="square"/>
<path d="M20 524.5L415 75" stroke="white" stroke-width="2" stroke-linecap="square"/>
<path d="M22 527.5L417 78" stroke="white" stroke-width="2" stroke-linecap="square"/>
<path d="M24 530.5L419 81" stroke="white" stroke-width="2" stroke-linecap="square"/>
<path d="M26 533.5L421 84" stroke="white" stroke-width="2" stroke-linecap="square"/>
<path d="M28 536.5L423 87" stroke="white" stroke-width="2" stroke-linecap="square"/>
<path d="M30 539.5L425 90" stroke="white" stroke-width="2" stroke-linecap="square"/>
<path d="M32 542.5L427 93" stroke="white" stroke-width="2" stroke-linecap="square"/>
<path d="M34 545.5L429 96" stroke="white" stroke-width="2" stroke-linecap="square"/>
<path d="M36 548.5L431 99" stroke="white" stroke-width="2" stroke-linecap="square"/>
<path d="M38 551.5L433 102" stroke="white" stroke-width="2" stroke-linecap="square"/>
<path d="M40 554.5L435 105" stroke="white" stroke-width="2" stroke-linecap="square"/>
<path d="M42 557.5L437 108" stroke="white" stroke-width="2" stroke-linecap="square"/>
<path d="M44 560.5L439 111" stroke="white" stroke-width="2" stroke-linecap="square"/>
<path d="M46 563.5L441 114" stroke="white" stroke-width="2" stroke-linecap="square"/>
<path d="M48 566.5L443 117" stroke="white" stroke-width="2" stroke-linecap="square"/>
<path d="M50 569.5L445 120" stroke="white" stroke-width="2" stroke-linecap="square"/>
<path d="M52 572.5L447 123" stroke="white" stroke-width="2" stroke-linecap="square"/>
<path d="M54 575.5L449 126" stroke="white" stroke-width="2" stroke-linecap="square"/>
<path d="M56 578.5L451 129" stroke="white" stroke-width="2" stroke-linecap="square"/>
<path d="M58 581.5L453 132" stroke="white" stroke-width="2" stroke-linecap="square"/>
<path d="M60 584.5L455 135" stroke="white" stroke-width="2" stroke-linecap="square"/>
</g>
</svg>
